<svg fill="#000000" version="1.1" id="Capa_1" xmlns="http://www.w3.org/2000/svg" viewBox="0 0 60 60" xml:space="preserve"><g id="SVGRepo_bgCarrier" stroke-width="0"></g><g id="SVGRepo_tracerCarrier" stroke-linecap="round" stroke-linejoin="round"></g><g id="SVGRepo_iconCarrier"> <g> <circle cx="5" cy="13" r="1"></circle> <rect x="4" y="28" width="2" height="2"></rect> <rect x="4" y="25" width="2" height="2"></rect> <rect x="4" y="22" width="2" height="2"></rect> <rect x="4" y="19" width="2" height="2"></rect> <rect x="4" y="16" width="2" height="2"></rect> <rect x="10" y="14" width="13" height="2"></rect> <rect x="10" y="17" width="10" height="2"></rect> <rect x="10" y="20" width="11" height="2"></rect> <rect x="10" y="23" width="4" height="2"></rect> <g> <path d="M39.841,33.938c-1.224,0-2.539,0.294-3.805,0.85c-1.65,0.726-3.012,1.802-3.836,3.03c-0.73,1.092-0.931,2.153-0.564,2.988 c0.463,1.052,1.81,1.68,3.604,1.68c1.224,0,2.539-0.293,3.804-0.85c3.201-1.406,5.216-4.162,4.4-6.018 C42.982,34.565,41.635,33.938,39.841,33.938z"></path> <path d="M54.465,44L52,40.303V18h8v-6.911C60,9.386,58.614,8,56.911,8H34H3.089C1.386,8,0,9.386,0,11.089V34v14.911 C0,50.614,1.386,52,3.089,52h53.822C58.614,52,60,50.614,60,48.911V44H54.465z M55,12c0.552,0,1,0.448,1,1s-0.448,1-1,1 s-1-0.448-1-1S54.448,12,55,12z M5,48c-0.552,0-1-0.448-1-1s0.448-1,1-1s1,0.448,1,1S5.552,48,5,48z M9,32H2V11.089 C2,10.488,2.488,10,3.089,10h28.89C31.453,22.22,21.347,32,9,32z M39.849,43.467c-1.517,0.667-3.11,1.019-4.608,1.019 c-2.612,0-4.645-1.074-5.436-2.875c-0.651-1.483-0.391-3.226,0.734-4.905c1.032-1.542,2.699-2.873,4.692-3.749 c1.518-0.666,3.111-1.019,4.609-1.019c2.611,0,4.644,1.075,5.435,2.876C46.57,37.76,44.187,41.562,39.849,43.467z M55,48 c-0.552,0-1-0.448-1-1s0.448-1,1-1s1,0.448,1,1S55.552,48,55,48z"></path> <polygon points="54,39.697 55.535,42 60,42 60,41 56,41 56,39 60,39 60,38 55,38 55,36 60,36 60,32 55,32 55,30 60,30 60,29 55,29 55,27 60,27 60,26 55,26 55,24 60,24 60,23 55,23 55,21 60,21 60,20 54,20 "></polygon> </g> </g> </g></svg>